<svg width="386" height="95" viewBox="0 0 386 95" fill="none" xmlns="http://www.w3.org/2000/svg">
<path d="M74.4 50.8C75.9333 50.8 77.0333 51.1333 77.7 51.8C78.4333 52.4667 78.8 53.3333 78.8 54.4C78.8 56.1333 78.2667 57.6667 77.2 59C76.2 60.3333 74.6 61.0333 72.4 61.1C67.0667 61.2333 62.3333 60.8333 58.2 59.9C53.4667 69.8333 47.7333 78.1 41 84.7C34.3333 91.2333 27.6333 94.5 20.9 94.5C13.9667 94.5 8.8 90.4667 5.4 82.4C2 74.3333 0.3 63.4333 0.3 49.7C0.3 37.9667 1.13333 27.4333 2.8 18.1C3.4 14.6333 4.23333 12.3 5.3 11.1C6.43333 9.83333 8.33333 9.2 11 9.2C15.4 9.2 17.6 11.1 17.6 14.9C17.6 15.3 17.5333 16.0333 17.4 17.1C15.4 29.1 14.4 39.9667 14.4 49.7C14.4 59.9 15.2333 67.6667 16.9 73C18.6333 78.2667 21.2 80.9 24.6 80.9C28.0667 80.9 31.8333 78.5 35.9 73.7C39.9667 68.9 43.7 62.8667 47.1 55.6C43.0333 53.0667 39.9667 49.8 37.9 45.8C35.8333 41.7333 34.8 37.0667 34.8 31.8C34.8 26.5333 35.6 22.1 37.2 18.5C38.8667 14.8333 41.1 12.1 43.9 10.3C46.7667 8.5 49.9333 7.6 53.4 7.6C57.6667 7.6 61.0333 9.13333 63.5 12.2C66.0333 15.2667 67.3 19.4667 67.3 24.8C67.3 32.4667 65.6333 40.8333 62.3 49.9C65.8333 50.5 69.8667 50.8 74.4 50.8ZM44.9 31.1C44.9 37.6333 47 42.4667 51.2 45.6C53.8 38.1333 55.1 31.9667 55.1 27.1C55.1 24.3 54.7333 22.2667 54 21C53.2667 19.6667 52.2667 19 51 19C49.2 19 47.7333 20.0667 46.6 22.2C45.4667 24.2667 44.9 27.2333 44.9 31.1ZM77.3656 94.5C73.2323 94.5 69.9323 93 67.4656 90C64.999 87 63.7656 83.0667 63.7656 78.2C63.7656 72.8667 64.999 67.8333 67.4656 63.1C69.9323 58.3 73.199 54.4667 77.2656 51.6C81.399 48.6667 85.7656 47.2 90.3656 47.2C91.8323 47.2 92.799 47.5 93.2656 48.1C93.799 48.6333 94.2323 49.6333 94.5656 51.1C95.9656 50.8333 97.4323 50.7 98.9656 50.7C102.232 50.7 103.866 51.8667 103.866 54.2C103.866 55.6 103.366 58.9333 102.366 64.2C100.832 71.8667 100.066 77.2 100.066 80.2C100.066 81.2 100.299 82 100.766 82.6C101.299 83.2 101.966 83.5 102.766 83.5C104.032 83.5 105.566 82.7 107.366 81.1C109.166 79.4333 111.599 76.7667 114.666 73.1C115.466 72.1667 116.366 71.7 117.366 71.7C118.232 71.7 118.899 72.1 119.366 72.9C119.899 73.7 120.166 74.8 120.166 76.2C120.166 78.8667 119.532 80.9333 118.266 82.4C115.532 85.8 112.632 88.6667 109.566 91C106.499 93.3333 103.532 94.5 100.666 94.5C98.4656 94.5 96.4323 93.7667 94.5656 92.3C92.7656 90.7667 91.399 88.7 90.4656 86.1C86.999 91.7 82.6323 94.5 77.3656 94.5ZM80.9656 84.4C82.4323 84.4 83.8323 83.5333 85.1656 81.8C86.499 80.0667 87.4656 77.7667 88.0656 74.9L91.7656 56.5C88.9656 56.5667 86.3656 57.6333 83.9656 59.7C81.6323 61.7 79.7656 64.3667 78.3656 67.7C76.9656 71.0333 76.2656 74.5667 76.2656 78.3C76.2656 80.3667 76.6656 81.9 77.4656 82.9C78.3323 83.9 79.499 84.4 80.9656 84.4ZM149.938 71.7C150.805 71.7 151.472 72.1 151.938 72.9C152.472 73.7 152.738 74.8 152.738 76.2C152.738 78.8667 152.105 80.9333 150.838 82.4C147.972 85.9333 144.838 88.8333 141.438 91.1C138.105 93.3667 134.305 94.5 130.038 94.5C124.172 94.5 119.805 91.8333 116.938 86.5C114.138 81.1667 112.738 74.2667 112.738 65.8C112.738 57.6667 113.772 48.4 115.838 38C117.972 27.6 121.072 18.6667 125.138 11.2C129.272 3.73333 134.172 -5.72205e-06 139.838 -5.72205e-06C143.038 -5.72205e-06 145.538 1.49999 147.338 4.5C149.205 7.43333 150.138 11.6667 150.138 17.2C150.138 25.1333 147.938 34.3333 143.538 44.8C139.138 55.2667 133.172 65.6333 125.638 75.9C126.105 78.6333 126.872 80.6 127.938 81.8C129.005 82.9333 130.405 83.5 132.138 83.5C134.872 83.5 137.272 82.7333 139.338 81.2C141.405 79.6 144.038 76.9 147.238 73.1C148.038 72.1667 148.938 71.7 149.938 71.7ZM137.638 9.9C136.105 9.9 134.372 12.6667 132.438 18.2C130.505 23.7333 128.805 30.6 127.338 38.8C125.872 47 125.072 54.8667 124.938 62.4C129.672 54.6 133.438 46.8 136.238 39C139.038 31.1333 140.438 23.9667 140.438 17.5C140.438 12.4333 139.505 9.9 137.638 9.9ZM189.255 71.7C190.122 71.7 190.789 72.1 191.255 72.9C191.789 73.7 192.055 74.8 192.055 76.2C192.055 78.8667 191.422 80.9333 190.155 82.4C187.689 85.4 184.189 88.1667 179.655 90.7C175.189 93.2333 170.389 94.5 165.255 94.5C158.255 94.5 152.822 92.6 148.955 88.8C145.089 85 143.155 79.8 143.155 73.2C143.155 68.6 144.122 64.3333 146.055 60.4C147.989 56.4 150.655 53.2333 154.055 50.9C157.522 48.5667 161.422 47.4 165.755 47.4C169.622 47.4 172.722 48.5667 175.055 50.9C177.389 53.1667 178.555 56.2667 178.555 60.2C178.555 64.8 176.889 68.7667 173.555 72.1C170.289 75.3667 164.722 77.9667 156.855 79.9C158.522 82.9667 161.689 84.5 166.355 84.5C169.355 84.5 172.755 83.4667 176.555 81.4C180.422 79.2667 183.755 76.5 186.555 73.1C187.355 72.1667 188.255 71.7 189.255 71.7ZM164.055 57.2C161.589 57.2 159.489 58.6333 157.755 61.5C156.089 64.3667 155.255 67.8333 155.255 71.9V72.1C159.189 71.1667 162.289 69.7667 164.555 67.9C166.822 66.0333 167.955 63.8667 167.955 61.4C167.955 60.1333 167.589 59.1333 166.855 58.4C166.189 57.6 165.255 57.2 164.055 57.2ZM191.013 94.5C188.48 94.5 186.68 93.1667 185.613 90.5C184.613 87.8333 184.113 83.5667 184.113 77.7C184.113 69.0333 185.347 60.8 187.813 53C188.413 51.0667 189.38 49.6667 190.713 48.8C192.113 47.8667 194.047 47.4 196.513 47.4C197.847 47.4 198.78 47.5667 199.313 47.9C199.847 48.2333 200.113 48.8667 200.113 49.8C200.113 50.8667 199.613 53.2667 198.613 57C197.947 59.6667 197.413 62 197.013 64C196.613 66 196.28 68.4667 196.013 71.4C198.213 65.6667 200.68 61 203.413 57.4C206.147 53.8 208.813 51.2333 211.413 49.7C214.08 48.1667 216.513 47.4 218.713 47.4C223.047 47.4 225.213 49.5667 225.213 53.9C225.213 56.5 224.48 61.2 223.013 68C221.747 73.8 221.113 77.6333 221.113 79.5C221.113 82.1667 222.08 83.5 224.013 83.5C225.347 83.5 226.913 82.7 228.713 81.1C230.58 79.4333 233.047 76.7667 236.113 73.1C236.913 72.1667 237.813 71.7 238.813 71.7C239.68 71.7 240.347 72.1 240.813 72.9C241.347 73.7 241.613 74.8 241.613 76.2C241.613 78.8667 240.98 80.9333 239.713 82.4C236.847 85.9333 233.747 88.8333 230.413 91.1C227.147 93.3667 223.413 94.5 219.213 94.5C215.813 94.5 213.247 93.5333 211.513 91.6C209.78 89.6 208.913 86.7333 208.913 83C208.913 81.1333 209.38 77.8 210.313 73C211.18 68.8 211.613 65.9 211.613 64.3C211.613 63.2333 211.247 62.7 210.513 62.7C209.647 62.7 208.413 63.8333 206.813 66.1C205.28 68.3 203.68 71.2333 202.013 74.9C200.413 78.5667 199.113 82.4333 198.113 86.5C197.38 89.6333 196.513 91.7667 195.513 92.9C194.58 93.9667 193.08 94.5 191.013 94.5ZM278.123 71.7C278.989 71.7 279.656 72.1 280.123 72.9C280.656 73.7 280.923 74.8 280.923 76.2C280.923 78.8667 280.289 80.9333 279.023 82.4C276.156 85.9333 273.023 88.8333 269.623 91.1C266.223 93.3667 262.323 94.5 257.923 94.5C244.323 94.5 237.523 84.9333 237.523 65.8C237.523 62.8667 237.623 59.9 237.823 56.9H233.923C231.923 56.9 230.556 56.5333 229.823 55.8C229.156 55.0667 228.823 53.9 228.823 52.3C228.823 48.5667 230.323 46.7 233.323 46.7H239.023C240.156 39.3667 241.889 32.6667 244.223 26.6C246.556 20.5333 249.356 15.7 252.623 12.1C255.956 8.5 259.523 6.7 263.323 6.7C266.123 6.7 268.323 7.93333 269.923 10.4C271.523 12.8667 272.323 15.9667 272.323 19.7C272.323 30.0333 267.989 39.0333 259.323 46.7H270.523C271.589 46.7 272.356 46.9333 272.823 47.4C273.289 47.8667 273.523 48.7333 273.523 50C273.523 54.6 269.756 56.9 262.223 56.9H250.023C249.889 60.2333 249.823 62.8333 249.823 64.7C249.823 71.6333 250.623 76.5 252.223 79.3C253.889 82.1 256.489 83.5 260.023 83.5C262.889 83.5 265.423 82.6333 267.623 80.9C269.823 79.1667 272.423 76.5667 275.423 73.1C276.223 72.1667 277.123 71.7 278.123 71.7ZM260.623 16.3C259.623 16.3 258.489 17.5667 257.223 20.1C256.023 22.5667 254.856 26.0333 253.723 30.5C252.656 34.9 251.756 39.8 251.023 45.2C254.956 41.8 257.889 38 259.823 33.8C261.823 29.5333 262.823 25.6667 262.823 22.2C262.823 18.2667 262.089 16.3 260.623 16.3ZM285.88 40.8C283.08 40.8 280.98 40.1667 279.58 38.9C278.18 37.5667 277.48 35.7333 277.48 33.4C277.48 31.0667 278.38 29.1333 280.18 27.6C282.047 26 284.347 25.2 287.08 25.2C289.547 25.2 291.547 25.8 293.08 27C294.614 28.2 295.38 29.9 295.38 32.1C295.38 34.7667 294.514 36.9 292.78 38.5C291.047 40.0333 288.747 40.8 285.88 40.8ZM285.08 94.5C280.747 94.5 277.58 92.9667 275.58 89.9C273.647 86.8333 272.68 82.7667 272.68 77.7C272.68 74.7 273.047 70.8667 273.78 66.2C274.58 61.4667 275.58 57.0667 276.78 53C277.38 50.8667 278.18 49.4 279.18 48.6C280.18 47.8 281.78 47.4 283.98 47.4C287.38 47.4 289.08 48.5333 289.08 50.8C289.08 52.4667 288.447 56.3333 287.18 62.4C285.58 69.7333 284.78 74.7 284.78 77.3C284.78 79.3 285.047 80.8333 285.58 81.9C286.114 82.9667 287.014 83.5 288.28 83.5C289.48 83.5 290.98 82.6667 292.78 81C294.58 79.3333 296.98 76.7 299.98 73.1C300.78 72.1667 301.68 71.7 302.68 71.7C303.547 71.7 304.214 72.1 304.68 72.9C305.214 73.7 305.48 74.8 305.48 76.2C305.48 78.8667 304.847 80.9333 303.58 82.4C296.98 90.4667 290.814 94.5 285.08 94.5ZM304.49 94.5C301.957 94.5 300.157 93.1667 299.09 90.5C298.09 87.8333 297.59 83.5667 297.59 77.7C297.59 69.0333 298.823 60.8 301.29 53C301.89 51.0667 302.857 49.6667 304.19 48.8C305.59 47.8667 307.523 47.4 309.99 47.4C311.323 47.4 312.257 47.5667 312.79 47.9C313.323 48.2333 313.59 48.8667 313.59 49.8C313.59 50.8667 313.09 53.2667 312.09 57C311.423 59.6667 310.89 62 310.49 64C310.09 66 309.757 68.4667 309.49 71.4C311.69 65.6667 314.157 61 316.89 57.4C319.623 53.8 322.29 51.2333 324.89 49.7C327.557 48.1667 329.99 47.4 332.19 47.4C336.523 47.4 338.69 49.5667 338.69 53.9C338.69 56.5 337.957 61.2 336.49 68C335.223 73.8 334.59 77.6333 334.59 79.5C334.59 82.1667 335.557 83.5 337.49 83.5C338.823 83.5 340.39 82.7 342.19 81.1C344.057 79.4333 346.523 76.7667 349.59 73.1C350.39 72.1667 351.29 71.7 352.29 71.7C353.157 71.7 353.823 72.1 354.29 72.9C354.823 73.7 355.09 74.8 355.09 76.2C355.09 78.8667 354.457 80.9333 353.19 82.4C350.323 85.9333 347.223 88.8333 343.89 91.1C340.623 93.3667 336.89 94.5 332.69 94.5C329.29 94.5 326.723 93.5333 324.99 91.6C323.257 89.6 322.39 86.7333 322.39 83C322.39 81.1333 322.857 77.8 323.79 73C324.657 68.8 325.09 65.9 325.09 64.3C325.09 63.2333 324.723 62.7 323.99 62.7C323.123 62.7 321.89 63.8333 320.29 66.1C318.757 68.3 317.157 71.2333 315.49 74.9C313.89 78.5667 312.59 82.4333 311.59 86.5C310.857 89.6333 309.99 91.7667 308.99 92.9C308.057 93.9667 306.557 94.5 304.49 94.5ZM358.499 94.5C354.699 94.5 351.599 93 349.199 90C346.866 87 345.699 83.0667 345.699 78.2C345.699 72.8667 346.933 67.8333 349.399 63.1C351.866 58.3 355.133 54.4667 359.199 51.6C363.333 48.6667 367.699 47.2 372.299 47.2C373.766 47.2 374.733 47.5 375.199 48.1C375.733 48.6333 376.166 49.6333 376.499 51.1C377.766 50.8333 379.166 50.7 380.699 50.7C382.299 50.7 383.533 51.1 384.399 51.9C385.266 52.7 385.699 53.8333 385.699 55.3C385.699 56.8333 385.366 59.5 384.699 63.3C383.966 67.3667 383.399 71.2667 382.999 75C382.599 78.6667 382.399 82.8 382.399 87.4C382.399 89.9333 381.866 91.7667 380.799 92.9C379.799 93.9667 378.133 94.5 375.799 94.5C373.533 94.5 371.833 93.9667 370.699 92.9C369.633 91.7667 369.099 89.9667 369.099 87.5L369.199 85.9C367.133 91.6333 363.566 94.5 358.499 94.5ZM362.399 84.4C364.266 84.4 365.966 83.1 367.499 80.5C369.033 77.9 370.399 73.2667 371.599 66.6L373.499 56.5C370.766 56.5667 368.233 57.6333 365.899 59.7C363.566 61.7 361.699 64.3667 360.299 67.7C358.899 71.0333 358.199 74.5667 358.199 78.3C358.199 80.3 358.566 81.8333 359.299 82.9C360.099 83.9 361.133 84.4 362.399 84.4Z" fill="white"/>
</svg>
