<svg width="158" height="174" viewBox="0 0 158 174" fill="none" xmlns="http://www.w3.org/2000/svg">
<path d="M148.8 86.6C151.867 86.6 154.067 87.2667 155.4 88.6C156.867 89.9333 157.6 91.6667 157.6 93.8C157.6 97.2667 156.533 100.333 154.4 103C152.4 105.667 149.2 107.067 144.8 107.2C134.133 107.467 124.667 106.667 116.4 104.8C106.933 124.667 95.4667 141.2 82 154.4C68.6667 167.467 55.2667 174 41.8 174C27.9333 174 17.6 165.933 10.8 149.8C4 133.667 0.600001 111.867 0.600001 84.4C0.600001 60.9333 2.26667 39.8667 5.6 21.2C6.8 14.2667 8.46667 9.59999 10.6 7.19999C12.8667 4.66666 16.6667 3.39999 22 3.39999C30.8 3.39999 35.2 7.19999 35.2 14.8C35.2 15.6 35.0667 17.0667 34.8 19.2C30.8 43.2 28.8 64.9333 28.8 84.4C28.8 104.8 30.4667 120.333 33.8 131C37.2667 141.533 42.4 146.8 49.2 146.8C56.1333 146.8 63.6667 142 71.8 132.4C79.9333 122.8 87.4 110.733 94.2 96.2C86.0667 91.1333 79.9333 84.6 75.8 76.6C71.6667 68.4667 69.6 59.1333 69.6 48.6C69.6 38.0667 71.2 29.2 74.4 22C77.7333 14.6667 82.2 9.19999 87.8 5.6C93.5333 2 99.8667 0.199996 106.8 0.199996C115.333 0.199996 122.067 3.26666 127 9.4C132.067 15.5333 134.6 23.9333 134.6 34.6C134.6 49.9333 131.267 66.6667 124.6 84.8C131.667 86 139.733 86.6 148.8 86.6ZM89.8 47.2C89.8 60.2667 94 69.9333 102.4 76.2C107.6 61.2667 110.2 48.9333 110.2 39.2C110.2 33.6 109.467 29.5333 108 27C106.533 24.3333 104.533 23 102 23C98.4 23 95.4667 25.1333 93.2 29.4C90.9333 33.5333 89.8 39.4667 89.8 47.2Z" fill="white"/>
</svg>
